# xmcd
#
# Track frame offsets:
#	150
#	15406
#	26735
#	41970
#	57950
#	70476
#	84698
#	99465
#	121310
#	129196
#	144574
#	155611
#	171119
#	186005
#	201373
#	217351
#	229886
#	243751
#	257234
#
# Disc length: 3644 seconds
#
# Revision: 1
# Processed by: cddbd v1.4PL0 Copyright (c) Steve Scherf et al.
# Submitted via: audiograbber 1.81.02
#
DISCID=180e3a13
DTITLE=Glenn Miller - The Mood For Swing - The Best From Glenn Miller CD1
DYEAR=1900
DGENRE=
TTITLE0=Sunrise Serenade
TTITLE1=The Jumpin Jive
TTITLE2=Moonlight Serenade
TTITLE3=In The Mood
TTITLE4=Johnson Rag
TTITLE5=My Melancholy Baby
TTITLE6=Pennsylvania 6-5-0-0-0
TTITLE7=Anvil Chorus
TTITLE8=Under A Blanket Of Blue
TTITLE9=Song Of The Wolga Boatmen
TTITLE10=Sun Valley Jump
TTITLE11=Chattanooga Choo Choo
TTITLE12=American Patrol
TTITLE13=Serenade In Blue
TTITLE14=St. Louis Blues March
TTITLE15=Runnin Wild
TTITLE16=I Want To Be Happy
TTITLE17=Glen Island Special
TTITLE18=Wham (Re-Bob-Boom-Bam)
EXTD=
EXTT0=
EXTT1=
EXTT2=
EXTT3=
EXTT4=
EXTT5=
EXTT6=
EXTT7=
EXTT8=
EXTT9=
EXTT10=
EXTT11=
EXTT12=
EXTT13=
EXTT14=
EXTT15=
EXTT16=
EXTT17=
EXTT18=
PLAYORDER=
